# xmcd
#
# Track frame offsets: 
#        150
#        14337
#        27629
#        41512
#        55152
#        68627
#        82597
#        94380
#        102746
#        113157
#        128627
#        141356
#        161848
#        174158
#        187038
#        198114
#        209203
#        219716
#        236524
#        249667
#        260167
#
# Disc length: 3626 seconds
#
# Revision: 0
# Processed by: cddbd v1.5.2PL0 Copyright (c) Steve Scherf et al.
# Submitted via: ExactAudioCopy v1.0b3
#
DISCID=390e2815
DTITLE=Golden Gate Quartet - Milestones Of Legends CD8 (W Leadbelly, G
DTITLE=uy Lafitte)
DYEAR=1900
DGENRE=Gospel
TTITLE0=Golden Gate Quartet W Leadbelly - Midnight Special
TTITLE1=Golden Gate Quartet W Leadbelly - Ham N' Eggs
TTITLE2=Golden Gate Quartet W Leadbelly - Grey Goose
TTITLE3=Golden Gate Quartet W Leadbelly - Stewball
TTITLE4=Golden Gate Quartet W Leadbelly - Pick A Bale Of Cotton
TTITLE5=Golden Gate Quartet W Leadbelly - Alabama Bound
TTITLE6=Golden Gate Quartet W Leadbelly - Rock Island Line
TTITLE7=Golden Gate Quartet W Guy Lafitte - Ballin' The Jack
TTITLE8=Golden Gate Quartet W Guy Lafitte - Alexander's Ragtime Band
TTITLE9=Golden Gate Quartet W Guy Lafitte - Golden Slippers
TTITLE10=Golden Gate Quartet W Guy Lafitte - Margie
TTITLE11=Golden Gate Quartet W Guy Lafitte - Deep River
TTITLE12=Golden Gate Quartet W Guy Lafitte - What A Time
TTITLE13=Golden Gate Quartet W Guy Lafitte - Wallie-Wallie
TTITLE14=Golden Gate Quartet W Guy Lafitte - The World Outside
TTITLE15=Golden Gate Quartet W Guy Lafitte - Memories Of You
TTITLE16=Golden Gate Quartet W Guy Lafitte - Nelly Bly
TTITLE17=Golden Gate Quartet W Guy Lafitte - I Got A Home In That Rock
TTITLE18=Golden Gate Quartet W Guy Lafitte - Tell Old Bill
TTITLE19=Golden Gate Quartet W Guy Lafitte - It's Me Oh Lord
TTITLE20=Golden Gate Quartet W Guy Lafitte - Me And Brother Bill
EXTD=
EXTT0=
EXTT1=
EXTT2=
EXTT3=
EXTT4=
EXTT5=
EXTT6=
EXTT7=
EXTT8=
EXTT9=
EXTT10=
EXTT11=
EXTT12=
EXTT13=
EXTT14=
EXTT15=
EXTT16=
EXTT17=
EXTT18=
EXTT19=
EXTT20=
PLAYORDER=
